<?xml version="1.0" encoding="UTF-8"?>
<svg id="Camada_1" data-name="Camada 1" xmlns="http://www.w3.org/2000/svg" xmlns:xlink="http://www.w3.org/1999/xlink" viewBox="0 0 397.49 384">
  <defs>
    <style>
      .cls-1 {
        fill: #fff;
      }

      .cls-2 {
        fill: url(#Gradiente_sem_nome_102);
      }

      .cls-3 {
        fill: url(#Gradiente_sem_nome_52);
      }

      .cls-4 {
        fill: url(#Gradiente_sem_nome_77);
      }
    </style>
    <linearGradient id="Gradiente_sem_nome_52" data-name="Gradiente sem nome 52" x1="283.39" y1="260.95" x2="197.88" y2="112.84" gradientUnits="userSpaceOnUse">
      <stop offset=".55" stop-color="#fff"/>
      <stop offset=".69" stop-color="#fff" stop-opacity=".77"/>
      <stop offset=".9" stop-color="#fff" stop-opacity=".43"/>
      <stop offset="1" stop-color="#fff" stop-opacity=".3"/>
    </linearGradient>
    <linearGradient id="Gradiente_sem_nome_77" data-name="Gradiente sem nome 77" x1="93.02" y1="207.38" x2="243.79" y2="207.38" gradientUnits="userSpaceOnUse">
      <stop offset=".55" stop-color="#fff"/>
      <stop offset=".72" stop-color="#fff" stop-opacity=".71"/>
      <stop offset=".91" stop-color="#fff" stop-opacity=".42"/>
      <stop offset="1" stop-color="#fff" stop-opacity=".3"/>
    </linearGradient>
    <linearGradient id="Gradiente_sem_nome_102" data-name="Gradiente sem nome 102" x1="217.79" y1="80.64" x2="144.94" y2="206.81" gradientUnits="userSpaceOnUse">
      <stop offset=".55" stop-color="#fff"/>
      <stop offset=".69" stop-color="#fff" stop-opacity=".77"/>
      <stop offset=".9" stop-color="#fff" stop-opacity=".43"/>
      <stop offset="1" stop-color="#fff" stop-opacity=".3"/>
    </linearGradient>
  </defs>
  <g>
    <path class="cls-3" d="M318.92,100.21c2.04,44.91-9.82,89.52-31.66,128.44l-27.7-13.04c-15.86,25.1-35.99,47.42-60.77,63.94-8.29-6.19-16.56-12.61-24.24-19.55-2.88-2.6-11.96-13.15-14.11-14.13-2.76-1.26-7.14,1.81-13.48-2.33-15.05-9.81-1.51-33.21,15.01-24.7,7.92,4.08,8.29,12.81,5.96,20.41,6.84,6.64,13.35,13.8,20.73,19.86,1.94,1.59,9.06,7.77,10.81,7.35,1.51-.37,10.2-7.51,12.13-9.11,17.31-14.44,33.09-35.04,43.17-55.08l27.02,13.11c1.87.17,5.59-8.61,6.6-10.75,14.08-29.76,21.08-64.44,20.84-97.36-22.39-8.84-46.08-14.17-69.94-17.42-4.04,4.95-6.27,7.5-13.15,7.64-21.57.44-18.07-32.48,3.31-28.05,8.19,1.7,8.73,9.75,12.03,10.87,4.12,1.39,12.21,1.49,16.98,2.4,20.71,3.97,40.84,9.94,60.48,17.49ZM228.97,80.04c-3.9-3.92-10.54,2.68-6.62,6.61,3.92,3.93,11.06-2.15,6.62-6.61ZM151.87,228.05c-2.82,2.86-.88,9.11,4.44,7.55,7.36-2.16,0-12.07-4.44-7.55Z"/>
    <path class="cls-4" d="M158.6,120.44l-37.17,8.01-1.53,2.02c3.75,28.23,12.43,55.42,26.53,80.1-4.04,2.73-7.97,5.72-12.13,8.29-3.53,2.18-8.96,4.25-12.04,6.46-.73.52-1.69.82-1.36,1.94,19.11,31.46,46.28,57.3,77.74,76.2,20.3-13.56,40.94-28.28,56.72-46.97-7.87-13.19,7.83-27.57,20.47-19.35,10.85,7.06,6.76,24.87-6.11,26.48-2.7.34-5.14-.98-7.04-.12-.68.31-8.25,9.29-10.13,11.06-11.37,10.73-25.19,21.77-38.07,30.65-2.39,1.65-13.35,9.46-15.01,9.72-1.83.29-3.45-.97-4.94-1.79-6.91-3.82-16.11-10.5-22.54-15.33-26.73-20.08-49.85-45.84-65.18-75.71.11-1.51,24.26-10.65,26.22-15.08-13.4-26.62-21.78-55.84-23.62-85.75,7.98-1.37,15.69-4.12,23.56-5.95,4.98-1.16,21.25-3.05,24.24-4.64.95-.5.94-3.02,1.96-4.4,10.74-14.6,32.49-2.12,25.23,13.78-5.03,11.02-20.82,11.31-25.8.38ZM169.91,109.93c-5.35,1.57-3.08,9.51,2.23,8.51,5.72-1.08,4.11-10.38-2.23-8.51ZM271.25,252.29c4.52-4.44-5.39-11.8-7.55-4.44-1.56,5.31,4.69,7.25,7.55,4.44Z"/>
    <path class="cls-2" d="M203.63,77.18v30.84c28.73.09,56.98,5.71,84.54,13.25,1.02,1.06-3.02,25.51-3.76,29.2-.8,4.02-6.15,21.76-5.46,23.57,1.21,3.18,3.54,3.24,4.02,8.38,2.02,21.66-27.54,21.32-28.29,2.71-.22-5.61,3.19-11.4,8.5-13.59,1.74-.71,5.27-.84,5.75-1.49,1.17-1.58,4.24-14.83,4.91-17.81.74-3.29,4.54-21.63,3.43-23.13-26.82-8.4-55.26-11.33-83.33-11.4v-30.84c-35.99,1.48-71.97,7.5-105.6,20.38-.37,17.41,1.65,35.06,5.43,52.04.67,3,4.9,19.59,6.11,20.76,1.02.99,6.25,1.55,9.05,3.73,9.86,7.66,4.53,24.67-7.94,25.57-10.57.76-17.48-8.66-15.21-18.78.63-2.8,4.33-5.09,4.21-8.02-.16-4.08-4.59-15.48-5.73-20.79-4.36-20.25-6.81-40.78-5.6-61.56,39.63-15.69,82.24-23.28,124.99-23.03ZM267.71,180.39c-5.27,1.41-3.55,9.61,2.22,8.54,5.93-1.1,3.82-10.16-2.22-8.54ZM97.61,190.97c-4.32,1.49-2.06,9.67,2.96,8.31,6.05-1.64,3.68-10.61-2.96-8.31Z"/>
  </g>
  <g>
    <path class="cls-1" d="M233.04,167.92v30.9c0,1.22-.67,2.35-1.74,2.93l-23.45,12.79c-2.23,1.22-4.94-.4-4.94-2.93v-30.9c0-1.22.67-2.35,1.74-2.93l23.45-12.79c2.23-1.22,4.94.4,4.94,2.93Z"/>
    <path class="cls-1" d="M167.61,167.89v30.91c0,1.23.67,2.36,1.76,2.94l23.79,12.84c2.23,1.2,4.93-.41,4.93-2.94v-30.91c0-1.23-.67-2.36-1.76-2.94l-23.79-12.84c-2.23-1.2-4.93.41-4.93,2.94Z"/>
    <path class="cls-1" d="M198.71,144.38l-23.9,12.33c-2.34,1.21-2.34,4.41,0,5.62l23.9,12.33c.99.51,2.19.51,3.19,0l23.73-12.33c2.33-1.21,2.33-4.4,0-5.61l-23.73-12.33c-.99-.52-2.19-.52-3.19,0Z"/>
  </g>
</svg>